<svg version="1.1" id="Layer_1" xmlns="http://www.w3.org/2000/svg" xmlns:xlink="http://www.w3.org/1999/xlink" x="0px" y="0px"
	 width="100%" viewBox="0 0 1930 730" enable-background="new 0 0 1930 730" xml:space="preserve">
<path fill="#FFFFFF" opacity="1.000000" stroke="none" 
	d="
M1338.000000,731.000000 
	C892.000000,731.000000 446.500000,731.000000 1.000000,731.000000 
	C1.000000,487.666656 1.000000,244.333328 1.000000,1.000000 
	C644.333313,1.000000 1287.666626,1.000000 1931.000000,1.000000 
	C1931.000000,244.333328 1931.000000,487.666656 1931.000000,731.000000 
	C1733.500000,731.000000 1536.000000,731.000000 1338.000000,731.000000 
M148.987015,418.857849 
	C155.150452,440.636292 166.421509,459.687378 181.208115,476.524200 
	C197.407257,494.969391 216.727921,509.559692 239.660568,518.754150 
	C248.145157,522.155945 257.119080,524.337341 266.215302,527.677917 
	C274.395233,540.663574 286.012146,547.988647 301.489899,547.888184 
	C311.019775,547.826355 320.578705,546.994629 330.060486,545.935120 
	C346.040680,544.149597 361.213043,539.199707 375.784729,532.582397 
	C400.200531,521.494629 421.071045,505.733154 438.467987,485.174408 
	C452.784851,468.255524 463.711761,449.497894 470.900482,428.651581 
	C478.259399,407.311768 482.042664,385.289795 479.852905,362.664185 
	C479.128723,355.181793 475.903198,348.268829 469.965546,342.508698 
	C469.965546,342.508698 469.823944,342.058167 469.973480,341.237213 
	C466.451599,322.796967 460.599213,305.243591 451.415894,288.740234 
	C438.273132,265.121399 420.914429,245.451294 398.575775,230.234161 
	C381.928345,218.893860 363.989899,210.380707 344.025177,205.288208 
	C334.628571,192.655685 322.217682,184.838333 306.422150,184.199509 
	C296.445068,183.795990 286.348999,184.955017 276.378052,186.060532 
	C253.609177,188.585022 232.438690,196.178726 212.427307,207.190781 
	C186.049545,221.706116 164.656326,241.636963 147.825531,266.534271 
	C136.137390,283.824188 127.263359,302.544189 122.320213,322.744965 
	C118.014915,340.339111 114.696411,358.278656 117.000374,376.638733 
	C119.450424,396.163025 129.910431,409.573853 148.147156,417.598114 
	C148.343719,417.856537 148.601013,418.018402 148.987015,418.857849 
M1385.000000,444.450806 
	C1385.000000,428.620697 1385.140015,412.788818 1384.940552,396.961243 
	C1384.842163,389.144745 1386.028320,381.745789 1388.798218,374.389343 
	C1393.159790,362.805603 1400.073242,354.484833 1412.730347,351.554749 
	C1419.957764,349.881622 1429.802734,353.218445 1431.789062,361.731934 
	C1432.969849,366.792267 1433.854248,372.047607 1433.903320,377.224457 
	C1434.124756,400.551239 1434.000000,423.881348 1434.000000,447.210236 
	C1434.000000,448.995514 1434.000000,450.780792 1434.000000,452.716125 
	C1444.869751,452.716125 1455.259644,452.716125 1465.788086,452.716125 
	C1465.873657,451.809387 1465.977417,451.171387 1465.987915,450.531830 
	C1466.330688,429.773132 1466.196777,408.992249 1467.171631,388.263489 
	C1467.779053,375.346283 1472.505127,363.552826 1483.754028,355.970703 
	C1490.653320,351.320374 1498.433716,348.782410 1506.733887,353.303680 
	C1513.829346,357.168610 1514.906006,363.926422 1514.950684,370.926483 
	C1515.086426,392.254913 1514.651978,413.592804 1515.146851,434.910583 
	C1515.394287,445.565704 1517.598755,451.340149 1527.186157,451.913239 
	C1538.986816,452.618652 1550.861694,452.081635 1562.645020,452.081635 
	C1562.645020,443.302643 1562.645020,434.239990 1562.645020,425.000000 
	C1560.467407,425.000000 1558.643921,425.000702 1556.820557,424.999817 
	C1548.972290,424.996002 1548.092529,424.014709 1547.982300,416.094849 
	C1547.702637,396.004364 1547.760376,375.894745 1546.803345,355.834717 
	C1546.382690,347.016663 1543.142334,338.364716 1536.461426,332.127502 
	C1524.270874,320.746765 1509.495117,319.096741 1493.862671,322.634247 
	C1480.099609,325.748749 1470.143433,334.313446 1461.943970,346.298798 
	C1455.647583,328.161530 1442.151001,320.945221 1424.338501,321.087280 
	C1406.755981,321.227448 1394.062988,330.526520 1383.999268,345.151428 
	C1383.999268,342.430878 1384.077393,340.599091 1383.985474,338.775848 
	C1383.621704,331.556488 1380.298828,326.774536 1374.127319,325.151550 
	C1371.312988,324.411469 1368.321045,324.091431 1365.402832,324.049927 
	C1355.987793,323.915985 1346.569458,324.000000 1337.240967,324.000000 
	C1337.240967,333.691040 1337.240967,342.631805 1337.240967,352.000000 
	C1339.423828,352.000000 1341.385254,351.999084 1343.346680,352.000153 
	C1351.208496,352.004456 1351.999512,352.809784 1351.999634,360.828003 
	C1352.000488,389.655853 1352.000000,418.483704 1352.000000,447.311554 
	C1352.000000,449.087158 1352.000000,450.862762 1352.000000,452.680298 
	C1363.276367,452.680298 1374.000122,452.680298 1385.000000,452.680298 
	C1385.000000,450.052643 1385.000000,447.742279 1385.000000,444.450806 
M635.000000,406.588928 
	C634.779968,415.962433 629.060791,422.360168 621.906738,424.967072 
	C610.903687,428.976562 600.066223,427.598541 590.107178,422.349274 
	C581.810059,417.976044 574.315674,412.079865 566.261353,406.722198 
	C560.416077,413.992920 554.010803,421.960144 547.224426,430.401459 
	C552.239502,434.546082 556.577209,438.603394 561.375000,442.013489 
	C581.336304,456.201263 603.468933,461.170593 627.414001,455.871124 
	C643.307434,452.353638 655.661194,443.427979 663.621216,428.869171 
	C668.890076,419.232574 669.942993,408.777557 668.844177,398.245178 
	C667.813904,388.369476 663.952637,379.571198 656.777527,372.094513 
	C644.920471,359.739136 629.467224,353.838104 614.467407,346.994781 
	C605.726196,343.006775 596.652588,339.657227 589.810425,332.366974 
	C583.580933,325.729462 585.139526,315.315430 591.257507,310.438843 
	C601.652954,302.152679 618.497620,301.615692 629.399963,309.360931 
	C631.699463,310.994507 633.004700,314.587494 633.848450,317.540405 
	C634.577454,320.091583 633.999878,323.016113 633.999878,325.606171 
	C644.752991,325.606171 654.808533,325.606171 664.999451,325.606171 
	C664.999451,319.885681 665.256226,314.543030 664.938416,309.234802 
	C664.478882,301.559021 662.251465,294.545074 656.485657,288.935822 
	C644.583740,277.357056 629.483398,274.307861 613.856750,273.099884 
	C603.625671,272.308990 593.548889,274.340881 584.069336,278.131104 
	C569.968140,283.769196 558.905029,293.159058 554.282532,308.002838 
	C552.233459,314.582611 552.356689,321.928314 552.087524,328.949066 
	C551.788879,336.738586 555.073608,343.566162 559.379822,349.843201 
	C566.367554,360.028809 576.510559,366.428680 587.167297,371.959015 
	C598.028992,377.595764 609.327271,382.398529 620.129028,388.140900 
	C627.231995,391.916901 633.856750,396.658081 635.000000,406.588928 
M793.528076,381.969147 
	C795.680786,376.526611 797.992371,371.140350 799.945496,365.627136 
	C802.311096,358.949646 804.230103,352.004272 813.637146,353.995605 
	C813.637146,344.321594 813.637146,335.261414 813.637146,326.000000 
	C805.955322,326.000000 798.635010,325.971741 791.315002,326.007019 
	C781.808899,326.052856 776.715942,330.677307 774.012573,338.491211 
	C771.727600,345.095886 769.513672,351.725220 767.284729,358.349182 
	C760.803101,377.611298 754.329712,396.876221 748.051941,415.548645 
	C747.216431,412.644775 746.412415,408.821320 745.031433,405.219116 
	C736.363647,382.609039 727.432190,360.099091 718.900391,337.438416 
	C716.518677,331.112457 712.309875,326.883789 706.020203,326.284180 
	C697.504150,325.472290 688.852478,326.082306 680.364502,326.082306 
	C680.364502,335.728149 680.364502,344.788452 680.364502,354.257050 
	C687.326355,352.543243 690.247375,356.364807 692.438416,361.803009 
	C694.993042,368.143433 698.046448,374.281250 700.811829,380.538635 
	C711.010986,403.616089 721.238159,426.681671 731.264465,449.834167 
	C732.184021,451.957703 732.330566,454.804749 731.797852,457.071838 
	C731.104553,460.022369 729.883972,463.153320 727.978271,465.449829 
	C724.283142,469.902954 720.649658,475.302094 715.724060,477.635712 
	C707.766541,481.405701 699.642700,479.120453 693.245239,472.678223 
	C690.972778,470.389832 689.623047,470.502014 688.157532,473.422729 
	C685.303589,479.110840 682.456116,484.821594 679.202393,490.282501 
	C677.254822,493.551300 678.367432,495.598328 680.913696,497.357330 
	C694.318115,506.617493 708.820129,509.579041 724.724670,505.118683 
	C740.818726,500.605194 750.609009,489.313141 756.594055,474.642883 
	C769.058105,444.091644 780.948914,413.306519 793.528076,381.969147 
M868.000000,342.264160 
	C867.954712,334.007965 864.717590,327.952057 858.214783,327.312744 
	C845.961060,326.108032 833.594543,326.050873 821.386658,325.521545 
	C821.386658,335.753143 821.386658,344.811401 821.386658,354.000000 
	C824.101685,354.000000 826.432190,354.048248 828.760071,353.990356 
	C834.308105,353.852448 836.162781,355.539185 836.116455,361.065094 
	C835.869202,390.543335 836.000000,420.024719 836.000000,449.505035 
	C836.000000,451.260376 836.000000,453.015686 836.000000,454.605408 
	C847.423462,454.605408 858.144165,454.605408 869.000000,454.605408 
	C869.000000,437.892578 868.903442,421.573120 869.045532,405.255798 
	C869.105835,398.332397 868.784424,391.231262 870.168579,384.527191 
	C874.013489,365.904724 883.912720,355.511780 903.143005,353.142548 
	C911.890137,352.064941 921.065674,356.265320 922.966125,366.071869 
	C924.143311,372.146698 924.830566,378.402435 924.911133,384.587738 
	C925.156372,403.405304 924.981445,422.228119 925.010681,441.048828 
	C925.020142,447.141693 929.055542,453.607880 934.172424,453.802277 
	C946.995239,454.289459 959.848938,453.963165 973.000000,453.963165 
	C973.000000,449.896606 973.000000,445.423157 973.000000,440.949738 
	C973.000000,436.361176 973.000000,431.772614 973.000000,427.000000 
	C970.292297,427.000000 968.304565,427.000305 966.316895,426.999939 
	C958.262634,426.998474 957.001526,425.708252 957.000610,417.446533 
	C956.998657,399.458527 957.361633,381.460510 956.862976,363.486359 
	C956.568665,352.879669 953.393982,343.006744 945.611267,335.021332 
	C938.711243,327.941650 930.275635,325.136536 920.721252,323.764313 
	C907.877319,321.919678 895.806824,323.586731 885.056152,330.660339 
	C878.724243,334.826630 873.399292,340.523315 868.000000,345.203583 
	C868.000000,345.084503 868.000000,344.086334 868.000000,342.264160 
M1203.500000,274.000000 
	C1175.510986,274.000000 1147.521362,273.881226 1119.533447,274.062927 
	C1109.415894,274.128632 1106.711548,277.368805 1104.699585,282.792786 
	C1104.532593,283.243011 1104.078735,283.656738 1104.077393,284.088440 
	C1104.042603,295.668488 1104.049805,307.248718 1104.049805,318.767151 
	C1114.341675,318.767151 1123.946655,318.767151 1134.001953,318.767151 
	C1134.001953,314.926117 1133.642090,311.250519 1134.159058,307.702728 
	C1134.404419,306.018799 1136.268799,303.285767 1137.492065,303.234467 
	C1146.567993,302.853851 1155.667236,303.028107 1165.230225,303.028107 
	C1165.230225,353.375183 1165.230225,403.087952 1165.230225,452.776184 
	C1176.655396,452.776184 1187.592651,452.776184 1199.013550,452.776184 
	C1199.013550,402.842712 1199.013550,353.129944 1199.013550,303.004547 
	C1208.283813,303.004547 1217.073486,302.951965 1225.861938,303.031281 
	C1229.223022,303.061584 1230.894653,305.082123 1230.976929,308.343872 
	C1231.063477,311.783936 1230.996338,315.227875 1230.996338,318.672882 
	C1241.294312,318.672882 1251.017456,318.672882 1261.000000,318.672882 
	C1261.000000,310.204773 1261.102295,302.059906 1260.952759,293.919678 
	C1260.886719,290.327667 1260.569702,286.696045 1259.905029,283.169342 
	C1258.842407,277.529999 1253.002808,274.037415 1244.984131,274.011780 
	C1231.489502,273.968719 1217.994751,274.000000 1203.500000,274.000000 
M1669.294189,421.947937 
	C1661.136719,423.964966 1653.023315,427.400330 1644.811157,427.655121 
	C1633.470703,428.007050 1623.366699,423.016541 1616.346680,413.682098 
	C1612.164795,408.121735 1609.327271,401.709442 1608.936279,393.993652 
	C1638.402588,393.993652 1667.471680,393.993652 1697.446167,393.993652 
	C1696.944824,384.650879 1697.387695,375.623413 1695.802002,366.967499 
	C1692.542236,349.171051 1683.938965,334.760559 1666.591919,326.891937 
	C1655.110352,321.683838 1643.371582,320.265167 1630.791626,321.847748 
	C1608.724365,324.623688 1592.603271,335.683014 1582.547852,355.152405 
	C1575.563477,368.675629 1573.728760,383.250824 1575.851562,398.512634 
	C1577.755127,412.198608 1582.776489,424.368042 1592.039307,434.361328 
	C1609.718384,453.435059 1632.387939,458.224609 1657.148682,454.787323 
	C1670.555786,452.926147 1682.479614,446.857239 1693.443970,438.934326 
	C1695.988159,437.095795 1696.072632,435.419800 1694.435425,432.871033 
	C1690.307007,426.444031 1686.417969,419.863220 1682.396362,413.284241 
	C1678.332153,415.983704 1674.139526,418.768494 1669.294189,421.947937 
M1808.574463,395.056030 
	C1801.945190,388.044373 1794.077026,382.999481 1785.071045,379.478241 
	C1775.100098,375.579712 1765.118896,371.615997 1755.488403,366.964203 
	C1746.587036,362.664581 1745.525146,355.219116 1752.565186,350.087219 
	C1754.448242,348.714600 1756.902710,347.768463 1759.216064,347.411560 
	C1765.795044,346.396545 1772.817383,345.895752 1778.131958,350.308411 
	C1780.935547,352.636292 1781.727051,357.387817 1783.871094,362.000000 
	C1787.035400,362.000000 1791.661987,362.000000 1796.288574,362.000000 
	C1801.068115,362.000000 1805.847656,362.000000 1811.000000,362.000000 
	C1811.000000,357.682068 1810.852539,353.877777 1811.026855,350.088287 
	C1811.623657,337.106934 1803.575928,329.716370 1793.674316,326.104401 
	C1775.411255,319.442444 1756.966187,319.076080 1738.577515,325.990234 
	C1717.705566,333.838043 1710.797607,354.616852 1719.023315,373.737244 
	C1724.034424,385.385284 1734.736938,390.856903 1745.420532,395.938538 
	C1755.689209,400.822815 1766.284058,405.026978 1776.505493,410.002625 
	C1784.018799,413.659943 1785.468872,421.804626 1779.358276,425.709381 
	C1775.829468,427.964355 1771.327637,429.609924 1767.181641,429.808044 
	C1756.346313,430.325836 1746.808228,426.024231 1738.235840,419.663086 
	C1734.588013,416.956268 1731.268799,413.806763 1727.874390,410.921326 
	C1723.557739,416.855316 1719.603027,422.647675 1715.257324,428.130066 
	C1712.732788,431.315033 1712.623535,433.448181 1715.775757,436.400574 
	C1729.417847,449.178284 1745.862549,454.947601 1764.125732,455.911682 
	C1773.833130,456.424072 1783.461914,454.733643 1792.327637,450.744751 
	C1801.750854,446.504974 1809.308960,440.127014 1813.145752,429.874542 
	C1817.738892,417.601288 1816.135742,406.342804 1808.574463,395.056030 
M1018.000000,383.568848 
	C1021.040955,362.665405 1038.431763,348.762665 1058.402222,351.256470 
	C1068.641602,352.535156 1073.588989,354.810242 1072.046387,366.048218 
	C1071.968628,366.614746 1072.327759,367.241241 1072.464355,367.766205 
	C1081.997559,367.766205 1091.265137,367.766205 1100.845337,367.766205 
	C1100.845337,360.592346 1101.935303,353.427307 1100.589478,346.753418 
	C1098.577393,336.776489 1090.678101,331.413391 1081.541870,328.020874 
	C1066.385498,322.392944 1050.790283,321.497131 1035.167847,325.160980 
	C1022.602600,328.107788 1011.049744,333.856415 1002.251099,343.443024 
	C986.894714,360.174500 981.519958,380.497498 985.227539,402.542816 
	C989.198059,426.151520 1002.393921,443.470337 1025.067505,452.481110 
	C1041.369751,458.959839 1058.284302,459.878784 1075.061523,454.808655 
	C1087.825195,450.951477 1099.575928,444.879791 1108.254272,433.815552 
	C1103.619507,426.253143 1099.099243,418.877441 1094.469604,411.323303 
	C1080.655396,424.318512 1063.204590,431.212006 1048.279175,428.133698 
	C1027.276855,423.802155 1014.565613,405.178925 1018.000000,383.568848 
M1278.000000,421.498474 
	C1278.000000,426.163818 1277.931274,430.830414 1278.014771,435.494263 
	C1278.176758,444.555298 1281.698608,451.324585 1288.274658,451.741913 
	C1300.723389,452.532013 1313.257935,451.970428 1325.618896,451.970428 
	C1325.618896,443.248749 1325.618896,434.185455 1325.618896,425.000000 
	C1323.740723,425.000000 1322.243774,425.002136 1320.746704,424.999634 
	C1311.448486,424.984009 1311.000122,424.536163 1311.000000,415.267242 
	C1310.999878,390.274048 1311.107300,365.280182 1310.943115,340.288055 
	C1310.884033,331.305939 1307.826660,326.032349 1301.238647,325.348602 
	C1288.660034,324.043091 1275.945190,324.050232 1263.369629,323.515991 
	C1263.369629,333.727112 1263.369629,342.789703 1263.369629,352.000000 
	C1265.899170,352.000000 1268.059937,352.033386 1270.219482,351.993866 
	C1277.316772,351.864044 1278.169434,353.873016 1278.099243,359.516998 
	C1277.846436,379.841644 1278.000000,400.171356 1278.000000,421.498474 
M1287.567749,274.000000 
	C1285.136108,274.000000 1282.704468,274.000000 1280.363525,274.000000 
	C1280.363525,284.365295 1280.363525,294.091370 1280.363525,303.767334 
	C1289.669067,303.767334 1298.609131,303.767334 1307.721558,303.767334 
	C1307.721558,293.809418 1307.721558,284.085510 1307.721558,274.000000 
	C1301.148804,274.000000 1294.848877,274.000000 1287.567749,274.000000 
z"/>
<path fill="#0095DA" opacity="1.000000" stroke="none" 
	d="
M1385.000000,444.941376 
	C1385.000000,447.742279 1385.000000,450.052643 1385.000000,452.680298 
	C1374.000122,452.680298 1363.276367,452.680298 1352.000000,452.680298 
	C1352.000000,450.862762 1352.000000,449.087158 1352.000000,447.311554 
	C1352.000000,418.483704 1352.000488,389.655853 1351.999634,360.828003 
	C1351.999512,352.809784 1351.208496,352.004456 1343.346680,352.000153 
	C1341.385254,351.999084 1339.423828,352.000000 1337.240967,352.000000 
	C1337.240967,342.631805 1337.240967,333.691040 1337.240967,324.000000 
	C1346.569458,324.000000 1355.987793,323.915985 1365.402832,324.049927 
	C1368.321045,324.091431 1371.312988,324.411469 1374.127319,325.151550 
	C1380.298828,326.774536 1383.621704,331.556488 1383.985474,338.775848 
	C1384.077393,340.599091 1383.999268,342.430878 1383.999268,345.151428 
	C1394.062988,330.526520 1406.755981,321.227448 1424.338501,321.087280 
	C1442.151001,320.945221 1455.647583,328.161530 1461.943970,346.298798 
	C1470.143433,334.313446 1480.099609,325.748749 1493.862671,322.634247 
	C1509.495117,319.096741 1524.270874,320.746765 1536.461426,332.127502 
	C1543.142334,338.364716 1546.382690,347.016663 1546.803345,355.834717 
	C1547.760376,375.894745 1547.702637,396.004364 1547.982300,416.094849 
	C1548.092529,424.014709 1548.972290,424.996002 1556.820557,424.999817 
	C1558.643921,425.000702 1560.467407,425.000000 1562.645020,425.000000 
	C1562.645020,434.239990 1562.645020,443.302643 1562.645020,452.081635 
	C1550.861694,452.081635 1538.986816,452.618652 1527.186157,451.913239 
	C1517.598755,451.340149 1515.394287,445.565704 1515.146851,434.910583 
	C1514.651978,413.592804 1515.086426,392.254913 1514.950684,370.926483 
	C1514.906006,363.926422 1513.829346,357.168610 1506.733887,353.303680 
	C1498.433716,348.782410 1490.653320,351.320374 1483.754028,355.970703 
	C1472.505127,363.552826 1467.779053,375.346283 1467.171631,388.263489 
	C1466.196777,408.992249 1466.330688,429.773132 1465.987915,450.531830 
	C1465.977417,451.171387 1465.873657,451.809387 1465.788086,452.716125 
	C1455.259644,452.716125 1444.869751,452.716125 1434.000000,452.716125 
	C1434.000000,450.780792 1434.000000,448.995514 1434.000000,447.210236 
	C1434.000000,423.881348 1434.124756,400.551239 1433.903320,377.224457 
	C1433.854248,372.047607 1432.969849,366.792267 1431.789062,361.731934 
	C1429.802734,353.218445 1419.957764,349.881622 1412.730347,351.554749 
	C1400.073242,354.484833 1393.159790,362.805603 1388.798218,374.389343 
	C1386.028320,381.745789 1384.842163,389.144745 1384.940552,396.961243 
	C1385.140015,412.788818 1385.000000,428.620697 1385.000000,444.941376 
z"/>
<path fill="#4DB848" opacity="1.000000" stroke="none" 
	d="
M634.999634,406.161774 
	C633.856750,396.658081 627.231995,391.916901 620.129028,388.140900 
	C609.327271,382.398529 598.028992,377.595764 587.167297,371.959015 
	C576.510559,366.428680 566.367554,360.028809 559.379822,349.843201 
	C555.073608,343.566162 551.788879,336.738586 552.087524,328.949066 
	C552.356689,321.928314 552.233459,314.582611 554.282532,308.002838 
	C558.905029,293.159058 569.968140,283.769196 584.069336,278.131104 
	C593.548889,274.340881 603.625671,272.308990 613.856750,273.099884 
	C629.483398,274.307861 644.583740,277.357056 656.485657,288.935822 
	C662.251465,294.545074 664.478882,301.559021 664.938416,309.234802 
	C665.256226,314.543030 664.999451,319.885681 664.999451,325.606171 
	C654.808533,325.606171 644.752991,325.606171 633.999878,325.606171 
	C633.999878,323.016113 634.577454,320.091583 633.848450,317.540405 
	C633.004700,314.587494 631.699463,310.994507 629.399963,309.360931 
	C618.497620,301.615692 601.652954,302.152679 591.257507,310.438843 
	C585.139526,315.315430 583.580933,325.729462 589.810425,332.366974 
	C596.652588,339.657227 605.726196,343.006775 614.467407,346.994781 
	C629.467224,353.838104 644.920471,359.739136 656.777527,372.094513 
	C663.952637,379.571198 667.813904,388.369476 668.844177,398.245178 
	C669.942993,408.777557 668.890076,419.232574 663.621216,428.869171 
	C655.661194,443.427979 643.307434,452.353638 627.414001,455.871124 
	C603.468933,461.170593 581.336304,456.201263 561.375000,442.013489 
	C556.577209,438.603394 552.239502,434.546082 547.224426,430.401459 
	C554.010803,421.960144 560.416077,413.992920 566.261353,406.722198 
	C574.315674,412.079865 581.810059,417.976044 590.107178,422.349274 
	C600.066223,427.598541 610.903687,428.976562 621.906738,424.967072 
	C629.060791,422.360168 634.779968,415.962433 634.999634,406.161774 
z"/>
<path fill="#4DB848" opacity="1.000000" stroke="none" 
	d="
M147.977066,417.166199 
	C129.910431,409.573853 119.450424,396.163025 117.000374,376.638733 
	C114.696411,358.278656 118.014915,340.339111 122.320213,322.744965 
	C127.263359,302.544189 136.137390,283.824188 147.825531,266.534271 
	C164.656326,241.636963 186.049545,221.706116 212.427307,207.190781 
	C232.438690,196.178726 253.609177,188.585022 276.378052,186.060532 
	C286.348999,184.955017 296.445068,183.795990 306.422150,184.199509 
	C322.217682,184.838333 334.628571,192.655685 344.064331,205.711105 
	C344.103516,206.134003 343.947693,206.285019 343.579102,206.138763 
	C329.882965,202.364761 316.305206,200.886017 302.505188,200.975174 
	C284.056305,201.094406 269.499176,215.320206 268.628662,234.047119 
	C236.662399,242.858261 210.460068,259.706238 190.654358,285.998596 
	C177.380142,303.620300 168.577255,323.285736 164.541565,345.160400 
	C164.135834,345.394836 163.963181,345.595184 163.439880,345.869568 
	C156.086288,346.346832 150.955917,349.814026 146.807755,355.258698 
	C139.818497,364.432465 141.503860,374.897858 142.657288,385.009338 
	C143.872116,395.659149 146.280731,406.172729 148.112076,416.847321 
	C148.056412,416.948792 147.977066,417.166199 147.977066,417.166199 
z"/>
<path fill="#4DB848" opacity="1.000000" stroke="none" 
	d="
M793.301636,382.293335 
	C780.948914,413.306519 769.058105,444.091644 756.594055,474.642883 
	C750.609009,489.313141 740.818726,500.605194 724.724670,505.118683 
	C708.820129,509.579041 694.318115,506.617493 680.913696,497.357330 
	C678.367432,495.598328 677.254822,493.551300 679.202393,490.282501 
	C682.456116,484.821594 685.303589,479.110840 688.157532,473.422729 
	C689.623047,470.502014 690.972778,470.389832 693.245239,472.678223 
	C699.642700,479.120453 707.766541,481.405701 715.724060,477.635712 
	C720.649658,475.302094 724.283142,469.902954 727.978271,465.449829 
	C729.883972,463.153320 731.104553,460.022369 731.797852,457.071838 
	C732.330566,454.804749 732.184021,451.957703 731.264465,449.834167 
	C721.238159,426.681671 711.010986,403.616089 700.811829,380.538635 
	C698.046448,374.281250 694.993042,368.143433 692.438416,361.803009 
	C690.247375,356.364807 687.326355,352.543243 680.364502,354.257050 
	C680.364502,344.788452 680.364502,335.728149 680.364502,326.082306 
	C688.852478,326.082306 697.504150,325.472290 706.020203,326.284180 
	C712.309875,326.883789 716.518677,331.112457 718.900391,337.438416 
	C727.432190,360.099091 736.363647,382.609039 745.031433,405.219116 
	C746.412415,408.821320 747.216431,412.644775 748.051941,415.548645 
	C754.329712,396.876221 760.803101,377.611298 767.284729,358.349182 
	C769.513672,351.725220 771.727600,345.095886 774.012573,338.491211 
	C776.715942,330.677307 781.808899,326.052856 791.315002,326.007019 
	C798.635010,325.971741 805.955322,326.000000 813.637146,326.000000 
	C813.637146,335.261414 813.637146,344.321594 813.637146,353.995605 
	C804.230103,352.004272 802.311096,358.949646 799.945496,365.627136 
	C797.992371,371.140350 795.680786,376.526611 793.301636,382.293335 
z"/>
<path fill="#4DB848" opacity="1.000000" stroke="none" 
	d="
M868.000000,342.676147 
	C868.000000,344.086334 868.000000,345.084503 868.000000,345.203583 
	C873.399292,340.523315 878.724243,334.826630 885.056152,330.660339 
	C895.806824,323.586731 907.877319,321.919678 920.721252,323.764313 
	C930.275635,325.136536 938.711243,327.941650 945.611267,335.021332 
	C953.393982,343.006744 956.568665,352.879669 956.862976,363.486359 
	C957.361633,381.460510 956.998657,399.458527 957.000610,417.446533 
	C957.001526,425.708252 958.262634,426.998474 966.316895,426.999939 
	C968.304565,427.000305 970.292297,427.000000 973.000000,427.000000 
	C973.000000,431.772614 973.000000,436.361176 973.000000,440.949738 
	C973.000000,445.423157 973.000000,449.896606 973.000000,453.963165 
	C959.848938,453.963165 946.995239,454.289459 934.172424,453.802277 
	C929.055542,453.607880 925.020142,447.141693 925.010681,441.048828 
	C924.981445,422.228119 925.156372,403.405304 924.911133,384.587738 
	C924.830566,378.402435 924.143311,372.146698 922.966125,366.071869 
	C921.065674,356.265320 911.890137,352.064941 903.143005,353.142548 
	C883.912720,355.511780 874.013489,365.904724 870.168579,384.527191 
	C868.784424,391.231262 869.105835,398.332397 869.045532,405.255798 
	C868.903442,421.573120 869.000000,437.892578 869.000000,454.605408 
	C858.144165,454.605408 847.423462,454.605408 836.000000,454.605408 
	C836.000000,453.015686 836.000000,451.260376 836.000000,449.505035 
	C836.000000,420.024719 835.869202,390.543335 836.116455,361.065094 
	C836.162781,355.539185 834.308105,353.852448 828.760071,353.990356 
	C826.432190,354.048248 824.101685,354.000000 821.386658,354.000000 
	C821.386658,344.811401 821.386658,335.753143 821.386658,325.521545 
	C833.594543,326.050873 845.961060,326.108032 858.214783,327.312744 
	C864.717590,327.952057 867.954712,334.007965 868.000000,342.676147 
z"/>
<path fill="#0095DA" opacity="1.000000" stroke="none" 
	d="
M1204.000000,274.000000 
	C1217.994751,274.000000 1231.489502,273.968719 1244.984131,274.011780 
	C1253.002808,274.037415 1258.842407,277.529999 1259.905029,283.169342 
	C1260.569702,286.696045 1260.886719,290.327667 1260.952759,293.919678 
	C1261.102295,302.059906 1261.000000,310.204773 1261.000000,318.672882 
	C1251.017456,318.672882 1241.294312,318.672882 1230.996338,318.672882 
	C1230.996338,315.227875 1231.063477,311.783936 1230.976929,308.343872 
	C1230.894653,305.082123 1229.223022,303.061584 1225.861938,303.031281 
	C1217.073486,302.951965 1208.283813,303.004547 1199.013550,303.004547 
	C1199.013550,353.129944 1199.013550,402.842712 1199.013550,452.776184 
	C1187.592651,452.776184 1176.655396,452.776184 1165.230225,452.776184 
	C1165.230225,403.087952 1165.230225,353.375183 1165.230225,303.028107 
	C1155.667236,303.028107 1146.567993,302.853851 1137.492065,303.234467 
	C1136.268799,303.285767 1134.404419,306.018799 1134.159058,307.702728 
	C1133.642090,311.250519 1134.001953,314.926117 1134.001953,318.767151 
	C1123.946655,318.767151 1114.341675,318.767151 1104.049805,318.767151 
	C1104.049805,307.248718 1104.042603,295.668488 1104.077393,284.088440 
	C1104.078735,283.656738 1104.532593,283.243011 1104.699585,282.792786 
	C1106.711548,277.368805 1109.415894,274.128632 1119.533447,274.062927 
	C1147.521362,273.881226 1175.510986,274.000000 1204.000000,274.000000 
z"/>
<path fill="#0095DA" opacity="1.000000" stroke="none" 
	d="
M1669.620605,421.750610 
	C1674.139526,418.768494 1678.332153,415.983704 1682.396362,413.284241 
	C1686.417969,419.863220 1690.307007,426.444031 1694.435425,432.871033 
	C1696.072632,435.419800 1695.988159,437.095795 1693.443970,438.934326 
	C1682.479614,446.857239 1670.555786,452.926147 1657.148682,454.787323 
	C1632.387939,458.224609 1609.718384,453.435059 1592.039307,434.361328 
	C1582.776489,424.368042 1577.755127,412.198608 1575.851562,398.512634 
	C1573.728760,383.250824 1575.563477,368.675629 1582.547852,355.152405 
	C1592.603271,335.683014 1608.724365,324.623688 1630.791626,321.847748 
	C1643.371582,320.265167 1655.110352,321.683838 1666.591919,326.891937 
	C1683.938965,334.760559 1692.542236,349.171051 1695.802002,366.967499 
	C1697.387695,375.623413 1696.944824,384.650879 1697.446167,393.993652 
	C1667.471680,393.993652 1638.402588,393.993652 1608.936279,393.993652 
	C1609.327271,401.709442 1612.164795,408.121735 1616.346680,413.682098 
	C1623.366699,423.016541 1633.470703,428.007050 1644.811157,427.655121 
	C1653.023315,427.400330 1661.136719,423.964966 1669.620605,421.750610 
M1659.247803,371.000000 
	C1660.728271,371.000000 1662.208740,371.000000 1663.701050,371.000000 
	C1663.149048,355.640900 1650.172974,345.546906 1637.478760,346.850250 
	C1625.231201,348.107727 1613.001221,356.445557 1610.302002,371.000000 
	C1626.334839,371.000000 1642.316772,371.000000 1659.247803,371.000000 
z"/>
<path fill="#4DB848" opacity="1.000000" stroke="none" 
	d="
M470.108337,342.960419 
	C475.903198,348.268829 479.128723,355.181793 479.852905,362.664185 
	C482.042664,385.289795 478.259399,407.311768 470.900482,428.651581 
	C463.711761,449.497894 452.784851,468.255524 438.467987,485.174408 
	C421.071045,505.733154 400.200531,521.494629 375.784729,532.582397 
	C361.213043,539.199707 346.040680,544.149597 330.060486,545.935120 
	C320.578705,546.994629 311.019775,547.826355 301.489899,547.888184 
	C286.012146,547.988647 274.395233,540.663574 266.155731,527.344116 
	C266.096161,527.010376 266.314972,526.923462 266.700256,526.964722 
	C279.211517,528.338379 291.309235,530.144104 303.471405,530.871887 
	C315.957458,531.618896 327.157623,520.320740 327.370422,508.213409 
	C327.579254,508.118805 327.984039,507.903381 328.392273,507.920471 
	C364.436554,500.913818 393.187164,482.838043 415.006622,453.863007 
	C426.225677,438.964752 434.461487,422.573730 438.463348,404.140442 
	C438.615631,404.107880 438.904724,403.992065 439.324615,403.990723 
	C460.214844,402.426208 473.076813,386.138153 471.970215,367.638123 
	C471.477722,359.404572 470.736633,351.185852 470.108337,342.960419 
z"/>
<path fill="#0095DA" opacity="1.000000" stroke="none" 
	d="
M1808.820801,395.326233 
	C1816.135742,406.342804 1817.738892,417.601288 1813.145752,429.874542 
	C1809.308960,440.127014 1801.750854,446.504974 1792.327637,450.744751 
	C1783.461914,454.733643 1773.833130,456.424072 1764.125732,455.911682 
	C1745.862549,454.947601 1729.417847,449.178284 1715.775757,436.400574 
	C1712.623535,433.448181 1712.732788,431.315033 1715.257324,428.130066 
	C1719.603027,422.647675 1723.557739,416.855316 1727.874390,410.921326 
	C1731.268799,413.806763 1734.588013,416.956268 1738.235840,419.663086 
	C1746.808228,426.024231 1756.346313,430.325836 1767.181641,429.808044 
	C1771.327637,429.609924 1775.829468,427.964355 1779.358276,425.709381 
	C1785.468872,421.804626 1784.018799,413.659943 1776.505493,410.002625 
	C1766.284058,405.026978 1755.689209,400.822815 1745.420532,395.938538 
	C1734.736938,390.856903 1724.034424,385.385284 1719.023315,373.737244 
	C1710.797607,354.616852 1717.705566,333.838043 1738.577515,325.990234 
	C1756.966187,319.076080 1775.411255,319.442444 1793.674316,326.104401 
	C1803.575928,329.716370 1811.623657,337.106934 1811.026855,350.088287 
	C1810.852539,353.877777 1811.000000,357.682068 1811.000000,362.000000 
	C1805.847656,362.000000 1801.068115,362.000000 1796.288574,362.000000 
	C1791.661987,362.000000 1787.035400,362.000000 1783.871094,362.000000 
	C1781.727051,357.387817 1780.935547,352.636292 1778.131958,350.308411 
	C1772.817383,345.895752 1765.795044,346.396545 1759.216064,347.411560 
	C1756.902710,347.768463 1754.448242,348.714600 1752.565186,350.087219 
	C1745.525146,355.219116 1746.587036,362.664581 1755.488403,366.964203 
	C1765.118896,371.615997 1775.100098,375.579712 1785.071045,379.478241 
	C1794.077026,382.999481 1801.945190,388.044373 1808.820801,395.326233 
z"/>
<path fill="#4DB848" opacity="1.000000" stroke="none" 
	d="
M1017.999084,384.007629 
	C1014.565613,405.178925 1027.276855,423.802155 1048.279175,428.133698 
	C1063.204590,431.212006 1080.655396,424.318512 1094.469604,411.323303 
	C1099.099243,418.877441 1103.619507,426.253143 1108.254272,433.815552 
	C1099.575928,444.879791 1087.825195,450.951477 1075.061523,454.808655 
	C1058.284302,459.878784 1041.369751,458.959839 1025.067505,452.481110 
	C1002.393921,443.470337 989.198059,426.151520 985.227539,402.542816 
	C981.519958,380.497498 986.894714,360.174500 1002.251099,343.443024 
	C1011.049744,333.856415 1022.602600,328.107788 1035.167847,325.160980 
	C1050.790283,321.497131 1066.385498,322.392944 1081.541870,328.020874 
	C1090.678101,331.413391 1098.577393,336.776489 1100.589478,346.753418 
	C1101.935303,353.427307 1100.845337,360.592346 1100.845337,367.766205 
	C1091.265137,367.766205 1081.997559,367.766205 1072.464355,367.766205 
	C1072.327759,367.241241 1071.968628,366.614746 1072.046387,366.048218 
	C1073.588989,354.810242 1068.641602,352.535156 1058.402222,351.256470 
	C1038.431763,348.762665 1021.040955,362.665405 1017.999084,384.007629 
z"/>
<path fill="#0095DA" opacity="1.000000" stroke="none" 
	d="
M1278.000000,420.998810 
	C1278.000000,400.171356 1277.846436,379.841644 1278.099243,359.516998 
	C1278.169434,353.873016 1277.316772,351.864044 1270.219482,351.993866 
	C1268.059937,352.033386 1265.899170,352.000000 1263.369629,352.000000 
	C1263.369629,342.789703 1263.369629,333.727112 1263.369629,323.515991 
	C1275.945190,324.050232 1288.660034,324.043091 1301.238647,325.348602 
	C1307.826660,326.032349 1310.884033,331.305939 1310.943115,340.288055 
	C1311.107300,365.280182 1310.999878,390.274048 1311.000000,415.267242 
	C1311.000122,424.536163 1311.448486,424.984009 1320.746704,424.999634 
	C1322.243774,425.002136 1323.740723,425.000000 1325.618896,425.000000 
	C1325.618896,434.185455 1325.618896,443.248749 1325.618896,451.970428 
	C1313.257935,451.970428 1300.723389,452.532013 1288.274658,451.741913 
	C1281.698608,451.324585 1278.176758,444.555298 1278.014771,435.494263 
	C1277.931274,430.830414 1278.000000,426.163818 1278.000000,420.998810 
z"/>
<path fill="#0095D9" opacity="1.000000" stroke="none" 
	d="
M344.170074,206.048325 
	C363.989899,210.380707 381.928345,218.893860 398.575775,230.234161 
	C420.914429,245.451294 438.273132,265.121399 451.415894,288.740234 
	C460.599213,305.243591 466.451599,322.796967 469.615112,341.480530 
	C460.231049,332.964691 449.875580,327.640808 436.636230,329.057495 
	C436.224548,328.644867 436.038635,328.358215 435.795685,327.698700 
	C434.256836,323.137207 432.998901,318.852875 431.255829,314.775970 
	C422.040649,293.222778 408.122650,275.179626 389.818390,260.612000 
	C378.713501,251.774063 366.751709,244.283325 352.962097,239.675369 
	C352.574554,239.270660 352.307068,239.090012 352.014526,238.470428 
	C352.857605,226.534607 351.168701,215.707184 343.947693,206.285019 
	C343.947693,206.285019 344.103516,206.134003 344.170074,206.048325 
z"/>
<path fill="#73BDE9" opacity="1.000000" stroke="none" 
	d="
M265.983002,527.042847 
	C257.119080,524.337341 248.145157,522.155945 239.660568,518.754150 
	C216.727921,509.559692 197.407257,494.969391 181.208115,476.524200 
	C166.421509,459.687378 155.150452,440.636292 149.086243,418.315887 
	C149.185486,417.773926 149.447937,417.460754 149.817230,417.581055 
	C157.196503,418.730316 164.206512,419.759247 171.407608,420.842255 
	C171.598709,420.896362 171.996902,420.931122 172.091217,421.285706 
	C189.349579,462.463074 218.696533,490.159241 260.900757,504.029419 
	C260.888306,504.070068 260.944122,504.134094 260.920227,504.584564 
	C260.117371,512.971130 262.609711,520.097412 266.314972,526.923462 
	C266.314972,526.923462 266.096161,527.010376 265.983002,527.042847 
z"/>
<path fill="#008F4C" opacity="1.000000" stroke="none" 
	d="
M436.862000,329.183502 
	C449.875580,327.640808 460.231049,332.964691 469.540344,341.890991 
	C469.823944,342.058167 469.965546,342.508698 470.036926,342.734558 
	C470.736633,351.185852 471.477722,359.404572 471.970215,367.638123 
	C473.076813,386.138153 460.214844,402.426208 439.342896,403.573639 
	C439.984528,395.787018 441.622894,388.442535 441.951935,381.039856 
	C442.729187,363.553955 442.213684,346.107605 436.862000,329.183502 
z"/>
<path fill="#0095DA" opacity="1.000000" stroke="none" 
	d="
M1288.058350,274.000000 
	C1294.848877,274.000000 1301.148804,274.000000 1307.721558,274.000000 
	C1307.721558,284.085510 1307.721558,293.809418 1307.721558,303.767334 
	C1298.609131,303.767334 1289.669067,303.767334 1280.363525,303.767334 
	C1280.363525,294.091370 1280.363525,284.365295 1280.363525,274.000000 
	C1282.704468,274.000000 1285.136108,274.000000 1288.058350,274.000000 
z"/>
<path fill="#73BDE9" opacity="1.000000" stroke="none" 
	d="
M149.052277,417.928833 
	C148.601013,418.018402 148.343719,417.856537 148.062103,417.382141 
	C147.977066,417.166199 148.056412,416.948792 148.326233,416.961395 
	C148.907333,417.088440 149.191284,417.250702 149.447937,417.460754 
	C149.447937,417.460754 149.185486,417.773926 149.052277,417.928833 
z"/>
<path fill="#008F4C" opacity="1.000000" stroke="none" 
	d="
M343.579102,206.138763 
	C351.168701,215.707184 352.857605,226.534607 351.637939,238.447922 
	C343.088776,236.853821 334.991547,234.342163 326.708984,232.880569 
	C307.412689,229.475388 288.111633,229.590637 268.981171,234.284088 
	C268.978363,234.166290 268.991455,233.931030 268.991455,233.931030 
	C269.499176,215.320206 284.056305,201.094406 302.505188,200.975174 
	C316.305206,200.886017 329.882965,202.364761 343.579102,206.138763 
z"/>
<path fill="#0BA14B" opacity="1.000000" stroke="none" 
	d="
M149.817230,417.581055 
	C149.191284,417.250702 148.907333,417.088440 148.381897,416.859924 
	C146.280731,406.172729 143.872116,395.659149 142.657288,385.009338 
	C141.503860,374.897858 139.818497,364.432465 146.807755,355.258698 
	C150.955917,349.814026 156.086288,346.346832 163.533936,345.954590 
	C164.029175,346.009125 164.223022,346.172516 164.197418,346.598724 
	C163.446503,352.927155 161.877319,358.872284 162.174866,364.722504 
	C162.760391,376.234375 163.983429,387.754272 165.719559,399.152588 
	C166.834656,406.473663 169.336349,413.583588 171.216507,420.788147 
	C164.206512,419.759247 157.196503,418.730316 149.817230,417.581055 
z"/>
<path fill="#014110" opacity="1.000000" stroke="none" 
	d="
M164.724075,345.082642 
	C168.577255,323.285736 177.380142,303.620300 190.654358,285.998596 
	C210.460068,259.706238 236.662399,242.858261 268.628662,234.047119 
	C268.991455,233.931030 268.978363,234.166290 268.991486,234.666809 
	C269.346375,237.741974 269.688141,240.316635 269.653320,242.962357 
	C241.657410,250.976746 218.351761,265.565216 200.307770,288.112152 
	C186.674652,305.147430 177.473541,324.268707 173.635010,345.931091 
	C173.435699,345.952881 173.038757,346.009552 172.672638,345.852570 
	C169.915329,345.457947 167.524170,345.220337 165.030502,345.006622 
	C164.928009,345.030548 164.724075,345.082642 164.724075,345.082642 
z"/>
<path fill="#0BA14B" opacity="1.000000" stroke="none" 
	d="
M163.935120,345.924133 
	C163.963181,345.595184 164.135834,345.394836 164.541565,345.160400 
	C164.724075,345.082642 164.928009,345.030548 164.902802,345.224365 
	C164.659409,345.669617 164.441223,345.921082 164.223022,346.172516 
	C164.223022,346.172516 164.029175,346.009125 163.935120,345.924133 
z"/>
<path fill="#FFFFFF" opacity="1.000000" stroke="none" 
	d="
M1658.773193,371.000000 
	C1642.316772,371.000000 1626.334839,371.000000 1610.302002,371.000000 
	C1613.001221,356.445557 1625.231201,348.107727 1637.478760,346.850250 
	C1650.172974,345.546906 1663.149048,355.640900 1663.701050,371.000000 
	C1662.208740,371.000000 1660.728271,371.000000 1658.773193,371.000000 
z"/>
<path fill="#014110" opacity="1.000000" stroke="none" 
	d="
M438.311066,404.172974 
	C434.461487,422.573730 426.225677,438.964752 415.006622,453.863007 
	C393.187164,482.838043 364.436554,500.913818 328.398010,507.515869 
	C327.302612,504.714874 326.609711,502.335510 325.977539,499.718323 
	C326.038269,499.480530 326.127777,498.997467 326.539978,499.023804 
	C327.782562,499.013123 328.647339,499.115051 329.438385,498.919189 
	C381.059875,486.134796 414.657532,454.461823 429.750427,403.192078 
	C429.891510,403.115723 430.191772,403.002777 430.594635,403.003601 
	C433.435364,403.393921 435.873199,403.783447 438.311066,404.172974 
z"/>
<path fill="#0BA04B" opacity="1.000000" stroke="none" 
	d="
M266.700256,526.964722 
	C262.609711,520.097412 260.117371,512.971130 261.301636,504.594727 
	C283.180145,510.975861 305.046722,511.598022 327.161560,508.308014 
	C327.157623,520.320740 315.957458,531.618896 303.471405,530.871887 
	C291.309235,530.144104 279.211517,528.338379 266.700256,526.964722 
z"/>
<path fill="#002809" opacity="1.000000" stroke="none" 
	d="
M438.463348,404.140442 
	C435.873199,403.783447 433.435364,403.393921 430.583038,402.607574 
	C431.444489,392.206146 433.187225,382.233978 433.884888,372.189209 
	C434.885559,357.782043 431.706665,343.801392 428.318665,329.681519 
	C430.996368,328.963623 433.424561,328.517578 435.852722,328.071564 
	C436.038635,328.358215 436.224548,328.644867 436.636230,329.057495 
	C442.213684,346.107605 442.729187,363.553955 441.951935,381.039856 
	C441.622894,388.442535 439.984528,395.787018 438.922974,403.575012 
	C438.904724,403.992065 438.615631,404.107880 438.463348,404.140442 
z"/>
<path fill="#00330C" opacity="1.000000" stroke="none" 
	d="
M327.370422,508.213409 
	C305.046722,511.598022 283.180145,510.975861 261.325562,504.144257 
	C260.944122,504.134094 260.888306,504.070068 260.934937,503.610443 
	C261.309692,500.434662 261.637848,497.718536 262.018799,494.791016 
	C262.071594,494.579620 262.202545,494.164703 262.456146,494.390198 
	C263.513214,495.131805 264.260468,495.960632 265.128632,496.116730 
	C276.337769,498.132172 287.502106,500.896576 298.805908,501.726562 
	C307.751312,502.383362 316.873230,500.635925 325.916779,499.956146 
	C326.609711,502.335510 327.302612,504.714874 327.989777,507.498810 
	C327.984039,507.903381 327.579254,508.118805 327.370422,508.213409 
z"/>
<path fill="#00294C" opacity="1.000000" stroke="none" 
	d="
M435.795685,327.698700 
	C433.424561,328.517578 430.996368,328.963623 428.140778,329.663574 
	C427.713348,329.917480 427.356995,329.909637 427.297668,329.528473 
	C413.962708,290.779999 388.659607,263.748657 351.020447,248.174011 
	C350.988434,248.034164 350.896210,247.762405 350.993958,247.404297 
	C351.760590,244.655899 352.429504,242.265625 353.098419,239.875336 
	C366.751709,244.283325 378.713501,251.774063 389.818390,260.612000 
	C408.122650,275.179626 422.040649,293.222778 431.255829,314.775970 
	C432.998901,318.852875 434.256836,323.137207 435.795685,327.698700 
z"/>
<path fill="#00290A" opacity="1.000000" stroke="none" 
	d="
M352.962097,239.675369 
	C352.429504,242.265625 351.760590,244.655899 350.648682,247.343353 
	C338.309326,243.543625 326.265930,240.769943 313.576355,239.663254 
	C298.685669,238.364624 284.300171,239.442688 269.961945,243.032883 
	C269.968872,242.979645 270.029907,242.891281 270.029907,242.891281 
	C269.688141,240.316635 269.346375,237.741974 268.994293,234.784607 
	C288.111633,229.590637 307.412689,229.475388 326.708984,232.880569 
	C334.991547,234.342163 343.088776,236.853821 351.646759,238.910919 
	C352.307068,239.090012 352.574554,239.270660 352.962097,239.675369 
z"/>
<path fill="#023854" opacity="1.000000" stroke="none" 
	d="
M261.965973,495.002380 
	C261.637848,497.718536 261.309692,500.434662 260.947357,503.569824 
	C218.696533,490.159241 189.349579,462.463074 172.343689,421.009277 
	C175.010361,419.871216 177.518875,419.364166 180.218887,418.884583 
	C180.410370,418.912109 180.796448,418.934174 180.879761,419.306580 
	C181.559891,421.207916 182.066544,422.779541 182.766998,424.259399 
	C194.160278,448.330170 210.590912,468.135406 233.557465,481.818298 
	C242.478653,487.133331 252.464890,490.660706 261.965973,495.002380 
z"/>
<path fill="#00330C" opacity="1.000000" stroke="none" 
	d="
M180.027405,418.857117 
	C177.518875,419.364166 175.010361,419.871216 172.249374,420.654694 
	C171.996902,420.931122 171.598709,420.896362 171.407608,420.842255 
	C169.336349,413.583588 166.834656,406.473663 165.719559,399.152588 
	C163.983429,387.754272 162.760391,376.234375 162.174866,364.722504 
	C161.877319,358.872284 163.446503,352.927155 164.197418,346.598724 
	C164.441223,345.921082 164.659409,345.669617 165.005310,345.200439 
	C167.524170,345.220337 169.915329,345.457947 172.686386,346.287384 
	C172.969879,348.199310 173.013321,349.547394 172.755905,350.835327 
	C169.461212,367.321259 170.720718,383.627869 174.751846,399.796844 
	C176.346054,406.191223 178.259384,412.506073 180.027405,418.857117 
z"/>
<path fill="#4DB848" opacity="1.000000" stroke="none" 
	d="
M173.834305,345.909332 
	C177.473541,324.268707 186.674652,305.147430 200.307770,288.112152 
	C218.351761,265.565216 241.657410,250.976746 269.653320,242.962357 
	C270.029907,242.891281 269.968872,242.979645 270.113037,243.356888 
	C274.799133,257.632935 284.331146,266.544434 298.761261,267.688934 
	C310.980927,268.658081 323.017639,269.786407 334.840576,273.285156 
	C334.865051,273.473358 334.887634,273.852203 334.586334,274.024414 
	C323.437531,282.601440 311.074982,285.612366 297.504517,285.126343 
	C293.350311,284.977539 289.099731,286.136536 284.966034,287.032410 
	C264.147034,291.544434 247.182159,302.415405 234.417862,319.314087 
	C222.440659,335.170807 217.623505,353.541504 216.815475,373.289948 
	C216.562576,379.471344 215.151550,386.068024 212.431290,391.564240 
	C209.299850,397.891205 204.130234,403.209442 199.621857,408.963776 
	C199.397919,408.961792 198.960800,408.864136 198.814667,408.531403 
	C194.833649,396.905060 191.752335,385.412140 192.065659,373.393036 
	C192.441544,358.973785 185.908737,350.479004 173.834305,345.909332 
z"/>
<path fill="#0BA14B" opacity="1.000000" stroke="none" 
	d="
M173.635010,345.931091 
	C185.908737,350.479004 192.441544,358.973785 192.065659,373.393036 
	C191.752335,385.412140 194.833649,396.905060 198.525848,408.715576 
	C192.520920,412.466400 186.658676,415.700287 180.796448,418.934143 
	C180.796448,418.934174 180.410370,418.912109 180.218887,418.884613 
	C178.259384,412.506073 176.346054,406.191223 174.751846,399.796844 
	C170.720718,383.627869 169.461212,367.321259 172.755905,350.835327 
	C173.013321,349.547394 172.969879,348.199310 173.052521,346.444366 
	C173.038757,346.009552 173.435699,345.952881 173.635010,345.931091 
z"/>
<path fill="#4DB848" opacity="1.000000" stroke="none" 
	d="
M429.609375,403.268433 
	C414.657532,454.461823 381.059875,486.134796 329.438385,498.919189 
	C328.647339,499.115051 327.782562,499.013123 326.505066,498.647644 
	C322.978851,487.734772 314.306976,481.635406 303.432159,480.859619 
	C293.143677,480.125641 282.937744,478.234344 272.714844,476.643311 
	C272.734161,476.434570 272.708649,476.016113 272.903351,475.710449 
	C279.278992,470.599487 285.417725,465.741821 293.659210,464.955170 
	C299.841675,464.365021 306.003784,463.548065 312.191498,463.028992 
	C331.334198,461.423187 348.258698,454.193329 362.605530,441.720917 
	C384.346771,422.820068 396.083740,398.965118 396.046631,369.738068 
	C396.037231,362.355316 398.009705,355.374908 402.213684,349.262634 
	C403.347015,357.216064 403.864685,364.975708 405.114502,372.615540 
	C405.900604,377.420929 407.291656,382.267334 409.279663,386.706482 
	C413.214172,395.492188 421.353180,399.551086 429.609375,403.268433 
z"/>
<path fill="#008F4C" opacity="1.000000" stroke="none" 
	d="
M429.750427,403.192078 
	C421.353180,399.551086 413.214172,395.492188 409.279663,386.706482 
	C407.291656,382.267334 405.900604,377.420929 405.114502,372.615540 
	C403.864685,364.975708 403.347015,357.216064 402.271606,349.064087 
	C402.023560,348.621094 402.183685,348.240417 402.463806,348.050049 
	C408.940430,339.123108 416.841309,332.723694 427.356995,329.909637 
	C427.356995,329.909637 427.713348,329.917480 427.891235,329.935425 
	C431.706665,343.801392 434.885559,357.782043 433.884888,372.189209 
	C433.187225,382.233978 431.444489,392.206146 430.180176,402.606750 
	C430.191772,403.002777 429.891510,403.115723 429.750427,403.192078 
z"/>
<path fill="#0CA14B" opacity="1.000000" stroke="none" 
	d="
M272.695526,476.852081 
	C282.937744,478.234344 293.143677,480.125641 303.432159,480.859619 
	C314.306976,481.635406 322.978851,487.734772 326.092896,498.621307 
	C326.127777,498.997467 326.038269,499.480530 325.977539,499.718323 
	C316.873230,500.635925 307.751312,502.383362 298.805908,501.726562 
	C287.502106,500.896576 276.337769,498.132172 265.128632,496.116730 
	C264.260468,495.960632 263.513214,495.131805 262.466492,494.029572 
	C265.714020,487.912994 269.204773,482.382538 272.695526,476.852081 
z"/>
<path fill="#73BDE9" opacity="1.000000" stroke="none" 
	d="
M272.714844,476.643311 
	C269.204773,482.382538 265.714020,487.912994 262.212891,493.804077 
	C262.202545,494.164703 262.071594,494.579620 262.018799,494.791016 
	C252.464890,490.660706 242.478653,487.133331 233.557465,481.818298 
	C210.590912,468.135406 194.160278,448.330170 182.766998,424.259399 
	C182.066544,422.779541 181.559891,421.207916 180.879761,419.306580 
	C186.658676,415.700287 192.520920,412.466400 198.671982,409.048340 
	C198.960800,408.864136 199.397919,408.961792 199.698151,409.333832 
	C200.852036,411.839294 201.594009,414.025665 202.577164,416.097656 
	C209.883759,431.496094 219.714462,445.014587 233.170578,455.590393 
	C245.010269,464.895782 257.811493,472.535095 272.708649,476.016113 
	C272.708649,476.016113 272.734161,476.434570 272.714844,476.643311 
z"/>
<path fill="#0095D9" opacity="1.000000" stroke="none" 
	d="
M427.297668,329.528473 
	C416.841309,332.723694 408.940430,339.123108 402.381592,347.638794 
	C396.226562,325.581421 385.451050,306.857452 367.850220,292.320770 
	C357.966217,284.157471 347.175842,277.687347 334.887634,273.852203 
	C334.887634,273.852203 334.865051,273.473358 335.072662,273.022766 
	C343.107422,266.156860 347.872131,257.750427 351.052490,248.313873 
	C388.659607,263.748657 413.962708,290.779999 427.297668,329.528473 
z"/>
<path fill="#008F4C" opacity="1.000000" stroke="none" 
	d="
M351.020447,248.174011 
	C347.872131,257.750427 343.107422,266.156860 335.048187,272.834564 
	C323.017639,269.786407 310.980927,268.658081 298.761261,267.688934 
	C284.331146,266.544434 274.799133,257.632935 270.106140,243.410126 
	C284.300171,239.442688 298.685669,238.364624 313.576355,239.663254 
	C326.265930,240.769943 338.309326,243.543625 350.550964,247.701447 
	C350.896210,247.762405 350.988434,248.034164 351.020447,248.174011 
z"/>
<path fill="#FFFFFF" opacity="1.000000" stroke="none" 
	d="
M334.586334,274.024414 
	C347.175842,277.687347 357.966217,284.157471 367.850220,292.320770 
	C385.451050,306.857452 396.226562,325.581421 402.101440,347.829163 
	C402.183685,348.240417 402.023560,348.621094 401.965637,348.819641 
	C398.009705,355.374908 396.037231,362.355316 396.046631,369.738068 
	C396.083740,398.965118 384.346771,422.820068 362.605530,441.720917 
	C348.258698,454.193329 331.334198,461.423187 312.191498,463.028992 
	C306.003784,463.548065 299.841675,464.365021 293.659210,464.955170 
	C285.417725,465.741821 279.278992,470.599487 272.903351,475.710449 
	C257.811493,472.535095 245.010269,464.895782 233.170578,455.590393 
	C219.714462,445.014587 209.883759,431.496094 202.577164,416.097656 
	C201.594009,414.025665 200.852036,411.839294 199.922089,409.335815 
	C204.130234,403.209442 209.299850,397.891205 212.431290,391.564240 
	C215.151550,386.068024 216.562576,379.471344 216.815475,373.289948 
	C217.623505,353.541504 222.440659,335.170807 234.417862,319.314087 
	C247.182159,302.415405 264.147034,291.544434 284.966034,287.032410 
	C289.099731,286.136536 293.350311,284.977539 297.504517,285.126343 
	C311.074982,285.612366 323.437531,282.601440 334.586334,274.024414 
z"/>
</svg>